<svg role="img" aria-label="Jake Trent" viewBox="0 0 2334 897" version="1.1" xmlns="http://www.w3.org/2000/svg" xmlns:xlink="http://www.w3.org/1999/xlink" xml:space="preserve" xmlns:serif="http://www.serif.com/" style="fill-rule:evenodd;clip-rule:evenodd;stroke-linecap:round;stroke-linejoin:round;stroke-miterlimit:1.5;">
    <g id="Artboard1" transform="matrix(0.917374,0,0,0.779166,-38.7081,-266.39)">
        <rect x="42.194" y="341.891" width="2543.33" height="1150.17" style="fill:none;"/>
        <g transform="matrix(1.12803,0,0,1.62991,-150.756,-557.232)">
            <g opacity="0.536842">
                <g transform="matrix(1.19821,-0.257191,0.296528,1.38147,-326.339,-18.2495)">
                    <g id="Layer1">
                        <path d="M273.418,622.608L274.342,651.12L298.096,681.612L302.376,711.937L491.189,854.289L491.902,828.213L508.905,818.795L609.877,661.429L608.912,640.444L646.894,553.808L609.885,546.329L462.867,783.745L273.418,622.608Z" style="fill:none;stroke:rgb(223,0,153);stroke-width:5.37px;"/>
                    </g>
                </g>
                <g transform="matrix(0.97773,-0.209866,0.209866,0.97773,-168.493,299.839)">
                    <g id="Layer2">
                        <path d="M541.351,867.708L542.857,829.431L607.486,765.851L596.401,742.261L626.074,748.728L739.345,621.597L760.958,627.698L763.693,687.792L691.468,760.89L743.044,780.865L804.528,639.394C804.528,639.394 808.197,654.566 818.972,658.369L839.485,654.863C839.485,654.863 839.888,679.602 845.592,681.503C851.297,683.405 736.373,939.033 736.373,939.033L687.399,916.948L717.23,837.721L639.126,816.567L569.002,892.477L541.351,867.708Z" style="fill:none;stroke:rgb(223,0,153);stroke-width:7.21px;"/>
                    </g>
                </g>
                <g transform="matrix(0.97773,-0.209866,0.209866,0.97773,-168.493,299.839)">
                    <g id="Layer3">
                        <path d="M902.793,670.277L769.626,953.427L807.647,966.004L841.652,949.267L886.676,851.827L886.385,1098.1L903.558,1083.4L937.35,1094.15L947.596,825.809L1108.11,647.816L1073.81,633.268L1031.34,678.725L1011.03,674.645L912.036,777.928L957.276,664.434L902.793,670.277Z" style="fill:none;stroke:rgb(223,0,153);stroke-width:7.21px;"/>
                    </g>
                </g>
                <g transform="matrix(0.97773,-0.209866,0.209866,0.97773,-168.493,299.839)">
                    <g id="Layer4">
                        <path d="M1077.36,742.735L956.244,993.719L1091.8,999.443L1120.05,984.092L1155.22,929.63L1038.62,936.914L1054.78,898.334L1111.52,895.848L1124.1,864.084L1113.26,837.789L1080.71,836.895L1099.65,799.601L1167.59,801.324L1195.2,749.262L1077.36,742.735Z" style="fill:none;stroke:rgb(223,0,153);stroke-width:7.21px;"/>
                    </g>
                </g>
                <g transform="matrix(0.97773,-0.209866,0.209866,0.97773,-168.493,299.839)">
                    <g id="Layer5">
                        <path d="M1135.93,1009.5L1272.5,741.398L1167.63,731.228L1153.94,693.842L1109.12,690.217L1105.34,669.489L1300.41,691.227L1337.97,615.783C1337.97,615.783 1344.51,649.168 1353.7,648.217L1379.52,635.59L1392.53,651.99L1372.56,698.546L1499.85,725.632L1461.52,779.21L1341.15,753.302L1182.48,1086.75L1135.93,1009.5Z" style="fill:none;stroke:rgb(223,0,153);stroke-width:7.21px;"/>
                    </g>
                </g>
                <g id="Layer6">
                    <path d="M1358.01,866.813L1299.89,1054.81L1352.63,1106.94L1393.78,986.061L1546.49,1203.99L1660.73,1244.63L1463.71,961.465L1620.88,867.445L1597.96,817.44L1315.66,789.964L1309.16,815.671C1309.16,815.671 1316.58,826.025 1310.12,838.183C1306.62,844.782 1297.65,860.52 1297.65,860.52L1358.01,866.813ZM1430.27,865.083L1411.48,919.53L1493.85,871.31L1430.27,865.083Z" style="fill:none;stroke:rgb(223,0,153);stroke-width:6.91px;"/>
                </g>
                <g transform="matrix(0.97773,-0.209866,0.209866,0.97773,-168.493,299.839)">
                    <g id="Layer7">
                        <path d="M1690.85,860.728L1538.17,1135.04L1690.23,1151.24L1721.37,1134.5L1760.48,1073.36L1636.04,1069.52L1659.61,1028.03L1731.39,1030.79L1751.16,989.064L1743.74,974.231L1687.46,970.673L1711.67,926.713L1837.33,932.839L1840.41,913.863C1840.41,913.863 1853.91,904.533 1857.67,901.003C1860.08,898.751 1860.92,887.361 1860.92,887.361L1873.99,875.469L1690.85,860.728Z" style="fill:none;stroke:rgb(223,0,153);stroke-width:7.21px;"/>
                    </g>
                </g>
                <g transform="matrix(0.97773,-0.209866,0.209866,0.97773,-168.493,299.839)">
                    <g id="Layer8">
                        <path d="M1721.4,1175.05L1827.19,1001.45L1867.49,974.865L1906.51,979.203L1928.63,1098.81L1980.72,1007.29L2024.03,982.105L2060.71,993.672L1913.36,1237.54L1864.21,1222.23L1865.6,1053.05L1774.11,1201.42L1721.4,1175.05Z" style="fill:none;stroke:rgb(223,0,153);stroke-width:7.21px;"/>
                    </g>
                </g>
                <g transform="matrix(0.97773,-0.209866,0.209866,0.97773,-168.493,299.839)">
                    <g id="Layer9">
                        <path d="M1911.14,1291.63L2112.17,964.737L1985.56,950.413L1968.11,908.31L1915.07,893.385L1905.86,864.486L2145.93,911.111L2191.14,835.292C2191.14,835.292 2198.65,875.701 2208.96,875.253C2219.26,874.805 2235.88,866.81 2235.88,866.81L2243.84,896.241L2220.15,928.473L2409.62,978.29L2331.71,1022.65L2184.14,987.629L1963.24,1378.32L1911.14,1291.63Z" style="fill:none;stroke:rgb(223,0,153);stroke-width:7.21px;"/>
                    </g>
                </g>
            </g>
        </g>
        <g transform="matrix(1.09202,0,0,1.397,-41.6949,-363.458)">
            <g transform="matrix(1.19821,-0.257191,0.296528,1.38147,-326.339,-18.2495)">
                <g id="Layer11" serif:id="Layer1">
                    <path d="M273.418,622.608L274.342,651.12L298.096,681.612L302.376,711.937L491.189,854.289L491.902,828.213L508.905,818.795L609.877,661.429L608.912,640.444L646.894,553.808L609.885,546.329L462.867,783.745L273.418,622.608Z" style="fill:rgb(223,0,153);"/>
                </g>
            </g>
            <g transform="matrix(0.97773,-0.209866,0.209866,0.97773,-168.493,299.839)">
                <g id="Layer21" serif:id="Layer2">
                    <path d="M541.351,867.708L542.857,829.431L607.486,765.851L596.401,742.261L626.074,748.728L739.345,621.597L760.958,627.698L763.693,687.792L691.468,760.89L743.044,780.865L804.528,639.394C804.528,639.394 808.197,654.566 818.972,658.369L839.485,654.863C839.485,654.863 839.888,679.602 845.592,681.503C851.297,683.405 736.373,939.033 736.373,939.033L687.399,916.948L717.23,837.721L639.126,816.567L569.002,892.477L541.351,867.708Z" style="fill:rgb(223,0,153);"/>
                </g>
            </g>
            <g transform="matrix(0.97773,-0.209866,0.209866,0.97773,-168.493,299.839)">
                <g id="Layer31" serif:id="Layer3">
                    <path d="M902.793,670.277L769.626,953.427L807.647,966.004L841.652,949.267L886.676,851.827L886.385,1098.1L903.558,1083.4L937.35,1094.15L947.596,825.809L1108.11,647.816L1073.81,633.268L1031.34,678.725L1011.03,674.645L912.036,777.928L957.276,664.434L902.793,670.277Z" style="fill:rgb(223,0,153);"/>
                </g>
            </g>
            <g transform="matrix(0.97773,-0.209866,0.209866,0.97773,-168.493,299.839)">
                <g id="Layer41" serif:id="Layer4">
                    <path d="M1077.36,742.735L956.244,993.719L1091.8,999.443L1120.05,984.092L1155.22,929.63L1038.62,936.914L1054.78,898.334L1111.52,895.848L1124.1,864.084L1113.26,837.789L1080.71,836.895L1099.65,799.601L1167.59,801.324L1195.2,749.262L1077.36,742.735Z" style="fill:rgb(223,0,153);"/>
                </g>
            </g>
            <g transform="matrix(0.97773,-0.209866,0.209866,0.97773,-168.493,299.839)">
                <g id="Layer51" serif:id="Layer5">
                    <path d="M1135.93,1009.5L1272.5,741.398L1167.63,731.228L1153.94,693.842L1109.12,690.217L1105.34,669.489L1300.41,691.227L1337.97,615.783C1337.97,615.783 1344.51,649.168 1353.7,648.217L1379.52,635.59L1392.53,651.99L1372.56,698.546L1499.85,725.632L1461.52,779.21L1341.15,753.302L1182.48,1086.75L1135.93,1009.5Z" style="fill:rgb(223,0,153);"/>
                </g>
            </g>
            <g id="Layer61" serif:id="Layer6">
                <path d="M1358.01,866.813L1299.89,1054.81L1352.63,1106.94L1393.78,986.061L1546.49,1203.99L1660.73,1244.63L1463.71,961.465L1620.88,867.445L1597.96,817.44L1315.66,789.964L1309.16,815.671C1309.16,815.671 1316.58,826.025 1310.12,838.183C1306.62,844.782 1297.65,860.52 1297.65,860.52L1358.01,866.813ZM1430.27,865.083L1411.48,919.53L1493.85,871.31L1430.27,865.083Z" style="fill:rgb(223,0,153);"/>
            </g>
            <g transform="matrix(0.97773,-0.209866,0.209866,0.97773,-168.493,299.839)">
                <g id="Layer71" serif:id="Layer7">
                    <path d="M1690.85,860.728L1538.17,1135.04L1690.23,1151.24L1721.37,1134.5L1760.48,1073.36L1636.04,1069.52L1659.61,1028.03L1731.39,1030.79L1751.16,989.064L1743.74,974.231L1687.46,970.673L1711.67,926.713L1837.33,932.839L1840.41,913.863C1840.41,913.863 1853.91,904.533 1857.67,901.003C1860.08,898.751 1860.92,887.361 1860.92,887.361L1873.99,875.469L1690.85,860.728Z" style="fill:rgb(223,0,153);"/>
                </g>
            </g>
            <g transform="matrix(0.97773,-0.209866,0.209866,0.97773,-168.493,299.839)">
                <g id="Layer81" serif:id="Layer8">
                    <path d="M1721.4,1175.05L1827.19,1001.45L1867.49,974.865L1906.51,979.203L1928.63,1098.81L1980.72,1007.29L2024.03,982.105L2060.71,993.672L1913.36,1237.54L1864.21,1222.23L1865.6,1053.05L1774.11,1201.42L1721.4,1175.05Z" style="fill:rgb(223,0,153);"/>
                </g>
            </g>
            <g transform="matrix(0.97773,-0.209866,0.209866,0.97773,-168.493,299.839)">
                <g id="Layer91" serif:id="Layer9">
                    <path d="M1911.14,1291.63L2112.17,964.737L1985.56,950.413L1968.11,908.31L1915.07,893.385L1905.86,864.486L2145.93,911.111L2191.14,835.292C2191.14,835.292 2198.65,875.701 2208.96,875.253C2219.26,874.805 2235.88,866.81 2235.88,866.81L2243.84,896.241L2220.15,928.473L2409.62,978.29L2331.71,1022.65L2184.14,987.629L1963.24,1378.32L1911.14,1291.63Z" style="fill:rgb(223,0,153);"/>
                </g>
            </g>
        </g>
        <g transform="matrix(1.09007,0,0,1.28342,-59.9188,-297.626)">
            <g>
                <g>
                    <path d="M1358.01,866.813L1299.89,1054.81L1352.63,1106.94L1393.78,986.061L1546.49,1203.99L1660.73,1244.63L1463.71,961.465L1620.88,867.445L1597.96,817.44L1315.66,789.964L1309.16,815.671C1309.16,815.671 1316.58,826.025 1310.12,838.183C1306.62,844.782 1297.65,860.52 1297.65,860.52L1358.01,866.813ZM1971.16,1161.62L2099.11,799.817L1972.31,812.385L1946.41,774.881L1891.42,771.42L1876.35,745.097L2120.85,740.302L2149.15,656.682C2149.15,656.682 2164.97,694.615 2174.96,692.014C2184.94,689.414 2199.51,678.11 2199.51,678.11L2213.46,705.216L2197.07,741.7L2392.77,750.645L2325.91,810.364L2174.28,807.097L2040.28,1235.44L1971.16,1161.62ZM854.863,765.723L784.085,1070.52L823.899,1074.83L853.635,1051.33L877.206,946.613L928.605,1187.46L942.312,1169.49L977.607,1172.9L931.309,908.389L1050.89,700.674L1014.31,693.648L982.317,747.006L961.607,747.278L886.492,869.037L906.906,748.576L854.863,765.723ZM1154.01,1048.47L1231.26,757.672L1126.59,769.736L1105.36,736.056L1060.78,741.919L1052.73,722.446L1248.02,702.76L1268.91,621.114C1268.91,621.114 1282.31,652.383 1291.1,649.525L1313.69,631.76L1329.86,645.064L1320.1,694.775L1450.24,694.544L1424.01,754.972L1300.89,754.902L1215.72,1114.23L1154.01,1048.47ZM1761.18,1087.46L1828.18,895.516L1862,861.071L1901.06,857.122L1947.79,969.421L1979.51,869.01L2016.57,835.297L2054.87,838.908L1961.97,1108.27L1910.71,1103.62L1876.56,937.914L1818.25,1102.17L1761.18,1087.46ZM1665.34,786.545L1573.63,1086.79L1725.7,1070.71L1752.64,1047.82L1778.04,979.826L1655.57,1002.19L1669.91,956.678L1740.67,944.315L1751.24,899.367L1740.87,886.422L1685.1,894.755L1699.55,846.692L1823.69,826.31L1822.72,807.11C1822.72,807.11 1833.96,795.155 1836.9,790.913C1838.78,788.208 1837.21,776.895 1837.21,776.895L1847.5,762.524L1665.34,786.545ZM1040.75,799.932L975.003,1070.74L1108.74,1047.89L1133.14,1026.96L1156.1,966.324L1043.62,997.918L1051.33,956.805L1106.28,942.466L1111.92,908.768L1095.8,885.334L1063.79,891.291L1074.48,850.854L1141.27,838.279L1157.34,781.581L1040.75,799.932ZM542.904,1034.61L536.344,996.871L586.19,921.144L570.402,900.405L600.77,900.501L684.839,752.43L707.251,753.859L722.537,812.041L667.261,898.668L721.88,907.374L752.305,756.15C752.305,756.15 759.076,770.215 770.409,771.672L789.73,763.939C789.73,763.939 795.316,788.042 801.292,788.704C807.268,789.366 748.551,1063.42 748.551,1063.42L696.034,1052.11L708.573,968.381L627.769,964.09L575.137,1053.03L542.904,1034.61ZM185.893,771.546L195.456,810.697L232.959,846.713L247.08,887.505L515.528,1035.6L508.651,999.393L526.231,982.009L600.553,738.643L593.174,709.901L612.995,580.447L566.432,579.633L460.675,945.429L185.893,771.546ZM1430.27,865.083L1411.48,919.53L1493.85,871.31L1430.27,865.083Z" style="fill:rgb(59,159,255);"/>
                    <clipPath id="_clip1">
                        <path d="M1358.01,866.813L1299.89,1054.81L1352.63,1106.94L1393.78,986.061L1546.49,1203.99L1660.73,1244.63L1463.71,961.465L1620.88,867.445L1597.96,817.44L1315.66,789.964L1309.16,815.671C1309.16,815.671 1316.58,826.025 1310.12,838.183C1306.62,844.782 1297.65,860.52 1297.65,860.52L1358.01,866.813ZM1971.16,1161.62L2099.11,799.817L1972.31,812.385L1946.41,774.881L1891.42,771.42L1876.35,745.097L2120.85,740.302L2149.15,656.682C2149.15,656.682 2164.97,694.615 2174.96,692.014C2184.94,689.414 2199.51,678.11 2199.51,678.11L2213.46,705.216L2197.07,741.7L2392.77,750.645L2325.91,810.364L2174.28,807.097L2040.28,1235.44L1971.16,1161.62ZM854.863,765.723L784.085,1070.52L823.899,1074.83L853.635,1051.33L877.206,946.613L928.605,1187.46L942.312,1169.49L977.607,1172.9L931.309,908.389L1050.89,700.674L1014.31,693.648L982.317,747.006L961.607,747.278L886.492,869.037L906.906,748.576L854.863,765.723ZM1154.01,1048.47L1231.26,757.672L1126.59,769.736L1105.36,736.056L1060.78,741.919L1052.73,722.446L1248.02,702.76L1268.91,621.114C1268.91,621.114 1282.31,652.383 1291.1,649.525L1313.69,631.76L1329.86,645.064L1320.1,694.775L1450.24,694.544L1424.01,754.972L1300.89,754.902L1215.72,1114.23L1154.01,1048.47ZM1761.18,1087.46L1828.18,895.516L1862,861.071L1901.06,857.122L1947.79,969.421L1979.51,869.01L2016.57,835.297L2054.87,838.908L1961.97,1108.27L1910.71,1103.62L1876.56,937.914L1818.25,1102.17L1761.18,1087.46ZM1665.34,786.545L1573.63,1086.79L1725.7,1070.71L1752.64,1047.82L1778.04,979.826L1655.57,1002.19L1669.91,956.678L1740.67,944.315L1751.24,899.367L1740.87,886.422L1685.1,894.755L1699.55,846.692L1823.69,826.31L1822.72,807.11C1822.72,807.11 1833.96,795.155 1836.9,790.913C1838.78,788.208 1837.21,776.895 1837.21,776.895L1847.5,762.524L1665.34,786.545ZM1040.75,799.932L975.003,1070.74L1108.74,1047.89L1133.14,1026.96L1156.1,966.324L1043.62,997.918L1051.33,956.805L1106.28,942.466L1111.92,908.768L1095.8,885.334L1063.79,891.291L1074.48,850.854L1141.27,838.279L1157.34,781.581L1040.75,799.932ZM542.904,1034.61L536.344,996.871L586.19,921.144L570.402,900.405L600.77,900.501L684.839,752.43L707.251,753.859L722.537,812.041L667.261,898.668L721.88,907.374L752.305,756.15C752.305,756.15 759.076,770.215 770.409,771.672L789.73,763.939C789.73,763.939 795.316,788.042 801.292,788.704C807.268,789.366 748.551,1063.42 748.551,1063.42L696.034,1052.11L708.573,968.381L627.769,964.09L575.137,1053.03L542.904,1034.61ZM185.893,771.546L195.456,810.697L232.959,846.713L247.08,887.505L515.528,1035.6L508.651,999.393L526.231,982.009L600.553,738.643L593.174,709.901L612.995,580.447L566.432,579.633L460.675,945.429L185.893,771.546ZM1430.27,865.083L1411.48,919.53L1493.85,871.31L1430.27,865.083Z"/>
                    </clipPath>
                    <g clip-path="url(#_clip1)">
                        <g transform="matrix(7.46474,0.210508,-0.0398296,1.41238,-1996.78,-166.849)">
                            <g transform="matrix(0.912039,0.169795,-0.308207,1.2454,398.523,-812.489)">
                                <rect x="307.809" y="1232.61" width="319.113" height="97.573" style="fill:white;"/>
                            </g>
                            <g transform="matrix(0.877871,0.163434,-0.0687805,0.277927,124.068,340.103)">
                                <rect x="307.809" y="1232.61" width="319.113" height="97.573" style="fill:white;"/>
                            </g>
                            <g transform="matrix(0.967635,0.180146,-0.0333313,0.134684,26.5051,473.311)">
                                <rect x="307.809" y="1232.61" width="319.113" height="97.573" style="fill:white;"/>
                            </g>
                            <g transform="matrix(1.04919,0.195328,-0.0224962,0.0909022,-39.6826,480.244)">
                                <rect x="307.809" y="1232.61" width="319.113" height="97.573" style="fill:white;"/>
                            </g>
                            <g>
                                <g transform="matrix(0.133857,-0.0199507,0.00377481,0.707463,267.913,78.2023)">
                                    <path d="M185.346,807.536L203.408,804.295L249.45,847.136L261.078,886.684L305.918,911.478L295.291,923.479L240.08,893.599L220.978,848.885L185.346,807.536Z" style="fill:rgb(59,159,255);"/>
                                </g>
                                <g transform="matrix(0.0754716,0.103145,-0.032429,0.662817,329.554,58.0602)">
                                    <rect x="460.378" y="801.495" width="12.221" height="149.652" style="fill:rgb(59,159,255);"/>
                                </g>
                                <g transform="matrix(0.133857,-0.0199507,0.00377481,0.707463,267.913,78.2023)">
                                    <path d="M726.072,886.538L741.74,892.142L747.602,853.068L732.572,847.911L726.072,886.538Z" style="fill:rgb(59,159,255);"/>
                                </g>
                                <g transform="matrix(0.133857,-0.0199507,0.00377481,0.707463,267.913,78.2023)">
                                    <path d="M1751.56,1094.17L1762.98,1095.1L1830,922.594L1810.31,920.972L1751.56,1094.17Z" style="fill:rgb(59,159,255);"/>
                                </g>
                                <g transform="matrix(0.133857,-0.0199507,0.00377481,0.707463,267.913,78.2023)">
                                    <path d="M1958.93,921.671L1974.52,925.336L1954.43,970.994L1946.78,956.017L1958.93,921.671Z" style="fill:rgb(59,159,255);"/>
                                </g>
                                <g transform="matrix(0.133857,-0.0199507,0.00377481,0.707463,267.913,78.2023)">
                                    <path d="M1877.19,974.271L1897.11,970.546L1919.27,1094.98L1906.77,1094.79L1877.19,974.271Z" style="fill:rgb(59,159,255);"/>
                                </g>
                                <g transform="matrix(0.133857,-0.0199507,0.00377481,0.707463,267.913,78.2023)">
                                    <path d="M2049.18,925.606L2069.38,942.193L1971.99,1174.95L1960.37,1161.8L2049.18,925.606Z" style="fill:rgb(59,159,255);"/>
                                </g>
                                <g transform="matrix(0.105787,-0.015767,0.00377481,0.707463,290.071,74.8997)">
                                    <path d="M823.985,856.724L855.361,857.321L808.35,1020.77L789.394,1016.45L823.985,856.724Z" style="fill:rgb(59,159,255);"/>
                                </g>
                                <g transform="matrix(0.133857,-0.0199507,0.00377481,0.707463,267.913,78.2023)">
                                    <path d="M1032.57,871.545L1020.13,867.245L978.775,1024.42L993.335,1032.04L1032.57,871.545Z" style="fill:rgb(59,159,255);"/>
                                </g>
                                <g transform="matrix(0.133857,-0.0199507,0.00377481,0.707463,267.913,78.2023)">
                                    <path d="M1191.6,884.102L1152.33,1030.64L1164.72,1037.8L1203.78,885.313L1191.6,884.102Z" style="fill:rgb(59,159,255);"/>
                                </g>
                                <g transform="matrix(0.133857,-0.0199507,0.00377481,0.707463,267.913,78.2023)">
                                    <path d="M1297.72,1037.17L1319.65,1048.09L1366.3,894.524L1345.55,883.033L1297.72,1037.17Z" style="fill:rgb(59,159,255);"/>
                                </g>
                                <g transform="matrix(0.133857,-0.0199507,0.00377481,0.707463,267.913,78.2023)">
                                    <path d="M1431.24,899.067L1481.03,902.791L1412.39,927.7L1419.12,906.816L1431.24,899.067Z" style="fill:rgb(59,159,255);"/>
                                </g>
                                <g transform="matrix(0.133857,-0.0199507,0.00377481,0.707463,267.913,78.2023)">
                                    <path d="M1567.57,1077.83L1572.97,1096.23L1591.17,1094.35L1645.14,1079.94L1583.62,1070.34L1644.32,911.351L1616.65,905.699L1567.57,1077.83Z" style="fill:rgb(59,159,255);"/>
                                </g>
                                <g transform="matrix(0.133857,-0.0199507,0.00377481,0.707463,267.913,78.2023)">
                                    <path d="M641.735,850.938L602.759,913.476L590.062,913.599L600.429,927.489L591.372,929.866L546.551,1000.11L553.648,1042.71L531.429,1038.97L525.924,995.537L566.195,893.13L617.681,845.889L641.735,850.938Z" style="fill:rgb(59,159,255);"/>
                                </g>
                            </g>
                        </g>
                    </g>
                    <path d="M1358.01,866.813L1299.89,1054.81L1352.63,1106.94L1393.78,986.061L1546.49,1203.99L1660.73,1244.63L1463.71,961.465L1620.88,867.445L1597.96,817.44L1315.66,789.964L1309.16,815.671C1309.16,815.671 1316.58,826.025 1310.12,838.183C1306.62,844.782 1297.65,860.52 1297.65,860.52L1358.01,866.813ZM1971.16,1161.62L2099.11,799.817L1972.31,812.385L1946.41,774.881L1891.42,771.42L1876.35,745.097L2120.85,740.302L2149.15,656.682C2149.15,656.682 2164.97,694.615 2174.96,692.014C2184.94,689.414 2199.51,678.11 2199.51,678.11L2213.46,705.216L2197.07,741.7L2392.77,750.645L2325.91,810.364L2174.28,807.097L2040.28,1235.44L1971.16,1161.62ZM854.863,765.723L784.085,1070.52L823.899,1074.83L853.635,1051.33L877.206,946.613L928.605,1187.46L942.312,1169.49L977.607,1172.9L931.309,908.389L1050.89,700.674L1014.31,693.648L982.317,747.006L961.607,747.278L886.492,869.037L906.906,748.576L854.863,765.723ZM1154.01,1048.47L1231.26,757.672L1126.59,769.736L1105.36,736.056L1060.78,741.919L1052.73,722.446L1248.02,702.76L1268.91,621.114C1268.91,621.114 1282.31,652.383 1291.1,649.525L1313.69,631.76L1329.86,645.064L1320.1,694.775L1450.24,694.544L1424.01,754.972L1300.89,754.902L1215.72,1114.23L1154.01,1048.47ZM1761.18,1087.46L1828.18,895.516L1862,861.071L1901.06,857.122L1947.79,969.421L1979.51,869.01L2016.57,835.297L2054.87,838.908L1961.97,1108.27L1910.71,1103.62L1876.56,937.914L1818.25,1102.17L1761.18,1087.46ZM1665.34,786.545L1573.63,1086.79L1725.7,1070.71L1752.64,1047.82L1778.04,979.826L1655.57,1002.19L1669.91,956.678L1740.67,944.315L1751.24,899.367L1740.87,886.422L1685.1,894.755L1699.55,846.692L1823.69,826.31L1822.72,807.11C1822.72,807.11 1833.96,795.155 1836.9,790.913C1838.78,788.208 1837.21,776.895 1837.21,776.895L1847.5,762.524L1665.34,786.545ZM1040.75,799.932L975.003,1070.74L1108.74,1047.89L1133.14,1026.96L1156.1,966.324L1043.62,997.918L1051.33,956.805L1106.28,942.466L1111.92,908.768L1095.8,885.334L1063.79,891.291L1074.48,850.854L1141.27,838.279L1157.34,781.581L1040.75,799.932ZM542.904,1034.61L536.344,996.871L586.19,921.144L570.402,900.405L600.77,900.501L684.839,752.43L707.251,753.859L722.537,812.041L667.261,898.668L721.88,907.374L752.305,756.15C752.305,756.15 759.076,770.215 770.409,771.672L789.73,763.939C789.73,763.939 795.316,788.042 801.292,788.704C807.268,789.366 748.551,1063.42 748.551,1063.42L696.034,1052.11L708.573,968.381L627.769,964.09L575.137,1053.03L542.904,1034.61ZM185.893,771.546L195.456,810.697L232.959,846.713L247.08,887.505L515.528,1035.6L508.651,999.393L526.231,982.009L600.553,738.643L593.174,709.901L612.995,580.447L566.432,579.633L460.675,945.429L185.893,771.546ZM1430.27,865.083L1411.48,919.53L1493.85,871.31L1430.27,865.083Z" style="fill:none;stroke:white;stroke-width:4px;"/>
                </g>
            </g>
        </g>
    </g>
</svg>
